<?xml version="1.0" encoding="UTF-8"?>
<svg width="26px" height="26px" viewBox="0 0 26 26" version="1.1" xmlns="http://www.w3.org/2000/svg" xmlns:xlink="http://www.w3.org/1999/xlink">
    <!-- Generator: Sketch 58 (84663) - https://sketch.com -->
    <title>Fill 1</title>
    <desc>Created with Sketch.</desc>
    <g id="Symbols" stroke="none" stroke-width="1" fill="none" fill-rule="evenodd" opacity="0.8">
        <g id="Left-panel" transform="translate(-19.000000, -568.000000)" fill="#FFFFFF">
            <g id="Fill-1">
                <g>
                    <path d="M40.1541556,589.715826 C38.464961,589.25875 35.7664333,588.565291 35.7664333,588.565291 C35.7664333,588.565291 34.6504144,587.507845 35.2079009,585.389814 C35.2079009,585.389814 37.1617186,583.273876 37.1617186,580.627645 C37.1617186,580.627645 38.0026551,580.01577 37.9974254,579.303484 C37.9963794,579.076515 37.9576796,578.740768 37.7192051,578.509615 C37.5905543,578.386194 37.5675436,578.366321 37.4388929,578.244992 C37.4388929,578.244992 38.5559578,574.011023 36.3239199,572.423284 C36.3239199,572.423284 35.5844396,571.755974 34.3721941,571.364792 C33.8147075,571.18489 33.1212487,571.100169 32.4183764,571.100169 C31.7175959,571.100169 31.0241371,571.18489 30.4666506,571.364792 C29.2533591,571.755974 28.5138788,572.423284 28.5138788,572.423284 C26.2828868,574.011023 27.3989058,578.244992 27.3989058,578.244992 C27.270255,578.366321 27.2482903,578.386194 27.1196396,578.509615 C26.8801191,578.740768 26.8424652,579.076515 26.8403733,579.303484 C26.8351436,580.01577 27.6771261,580.627645 27.6771261,580.627645 C27.6771261,583.273876 29.6298978,585.389814 29.6298978,585.389814 C30.1884303,587.507845 29.0713654,588.565291 29.0713654,588.565291 C29.0713654,588.565291 25.5758307,589.463754 24.0508488,589.889452 C24.0508488,589.889452 24.0592163,589.908279 24.0613082,589.912463 C21.6054389,587.722262 20.0459409,584.543648 20.0459409,581 C20.0459409,574.40848 25.4084802,569.045941 32,569.045941 C38.5915198,569.045941 43.9540591,574.40848 43.9540591,581 C43.9540591,584.438008 42.485558,587.532947 40.1541556,589.715826 M32,568 C24.8206614,568 19,573.820661 19,581 C19,588.179339 24.8206614,594 32,594 C39.1793386,594 45,588.179339 45,581 C45,573.820661 39.1793386,568 32,568"></path>
                </g>
            </g>
        </g>
    </g>
</svg>