<svg xmlns="http://www.w3.org/2000/svg" width="380" height="388" fill="none" viewBox="0 0 380 388">
    <g clip-path="url(#clip0)">
        <path fill="#CBCFFF" d="M215.894 250.655c62.812 0 113.731-50.963 113.731-113.828S278.706 23 215.894 23c-62.813 0-113.732 50.962-113.732 113.827 0 62.865 50.919 113.828 113.732 113.828z" opacity=".6"/>
        <path fill="#0072B3" d="M354.418 189.706c19.136 42.279.482 92.025-41.761 111.177-42.244 19.152-91.949.482-111.084-41.797-19.136-42.278-.482-92.025 41.761-111.177 42.244-19.152 91.949-.482 111.084 41.797z" opacity=".3"/>
        <path fill="#CAE1FC" d="M230.215 160.435c25.274 55.649.602 121.175-55 146.47-55.603 25.295-121.073.603-146.347-55.046-25.274-55.649-.602-121.175 55-146.47 55.602-25.175 121.073-.602 146.347 55.046z"/>
        <path fill="#E7A588" d="M106.855 212.832s-17.692 7.107-18.173 25.897l5.776 6.866c-.12 0 10.712-25.656 12.397-32.763z"/>
        <path fill="#F4D7B6" d="M102.763 215.723s-10.11 7.709-8.064 29.149l5.055.843c.12-.12 2.648-23.247 3.009-29.992z"/>
        <path fill="#E7A588" d="M114.798 207.652s-14.923 1.084-19.376 29.391l8.424 2.65s9.388-24.934 10.952-32.041z"/>
        <path fill="#F4D7B6" d="M112.392 208.857s-10.11 7.709-8.064 29.15l5.055.843c0-.12 2.648-23.368 3.009-29.993z"/>
        <path fill="#E7A588" d="M122.259 201.148s-14.081 3.132-18.413 33.486h9.748s7.101-26.018 8.665-33.486z"/>
        <path fill="#F4D7B6" d="M124.546 199.943s-12.516 9.155-10.47 33.847l6.138.723s3.73-26.861 4.332-34.57z"/>
        <path fill="#E7A588" d="M133.814 286.428c-2.768 2.53-11.915 7.228-13.479 14.214l-.121 13.49s-1.324 3.373-13.118 7.709c-11.794 4.457-24.31 2.53-24.31 2.53l6.017-26.5c-5.536-19.633-.361-59.383-.361-59.383.12-3.974 24.551-7.468 24.792-3.974.481-3.494.481-3.735 1.203-6.866 1.685-10.118 7.823-27.584 7.823-27.584 2.407-8.07 3.972-10.238 7.221-9.756 3.25.481.722 7.709.602 11.683 0 0-7.462 31.198-5.777 48.422 1.685 17.225 3.611 13.129 6.86 12.407 3.25-.723 3.37-5.3 7.462-15.418 4.573-12.648 9.869-8.191 9.869-8.191-4.574 35.774-6.499 39.749-14.683 47.217z"/>
        <path fill="#F4D7B6" d="M148.377 240.295s-4.694 2.168-5.055 7.347l3.731.723 1.324-8.07z"/>
        <path fill="#EE9A7C" d="M301.944 245.114s-9.387-12.527-14.442-10.6c-5.175 1.927-16.849 17.104-14.562 20.959 2.286 3.854 5.777-7.348 11.915-10.6 6.137-3.252 10.59 10.479 14.682 9.997 4.092-.361 2.407-9.756 2.407-9.756z"/>
        <path fill="#EE9A7C" d="M294.003 222.108s-11.915-11.082-19.497-1.928c-7.582 9.155-17.451 24.813-13.118 27.945 4.332 3.132 8.183-9.515 15.284-16.14 5.536-5.18 17.451 4.216 20.941 1.325 3.37-3.132-3.61-11.202-3.61-11.202z"/>
        <path fill="#7AB6F6" d="M247.787 117.916c15.285 23.729 8.425 55.288-15.164 70.585-23.709 15.298-55.241 8.432-70.525-15.177-15.285-23.729-8.425-55.287 15.164-70.585 23.709-15.297 55.241-8.431 70.525 15.177z"/>
        <path fill="#FA7071" d="M232.622 188.501c1.926-1.205 3.731-2.65 5.416-4.095-2.528-9.396-3.37-16.141-6.379-18.43-3.37-2.65-14.683-10.118-14.683-10.118-12.516 9.034-23.107.362-23.107.362s-10.591 6.384-14.923 10.479c-3.009 2.77-4.814 13.009-5.657 18.911 16.729 13.25 40.438 15.057 59.333 2.891z"/>
        <path fill="#EEA386" d="M295.326 230.298s-15.766-6.384-19.136-1.325c-3.37 5.059-12.757 26.861-8.424 29.15 4.332 2.409 8.665-10.48 12.155-17.466 3.49-6.986 15.646 3.614 19.016.602 3.49-2.891-3.611-10.961-3.611-10.961z"/>
        <path fill="#EEA386" d="M296.771 242.343s-14.322-5.782-17.572-.723c-3.249 5.059-12.396 26.62-8.424 28.909 3.971 2.168 8.304-10.48 11.674-17.466 3.37-6.986 14.201 3.132 17.451.121 3.249-3.012-3.129-10.841-3.129-10.841z"/>
        <path fill="#E7A588" d="M290.873 210.665s-21.543-5.059-27.922 6.384c-5.055 9.275-8.063 17.827-4.453 20.718 3.611 2.89 5.657-12.287 15.766-14.816 10.11-2.53 17.21 5.3 17.21 5.3s4.935-17.466-.601-17.586z"/>
        <path fill="#445998" d="M256.212 175.854s-.121 10.84 12.516 31.076l-3.129 2.048 1.926-1.205-3.129 2.048c-13.239-19.754-23.228-24.211-23.228-24.211l15.044-9.756z"/>
        <path fill="#7AB6F6" d="M309.887 258.966c1.084 1.686 1.324 3.613.843 5.661-.602 2.048-1.926 3.734-3.731 4.938l-.963.603c-3.971 2.65-9.146 1.806-11.433-1.807l-36.466-56.492c-.843-1.325-1.084-3.132-.723-4.818.482-1.687 1.565-3.252 3.13-4.216l3.49-2.289c3.249-2.047 7.341-1.445 9.146 1.446l36.707 56.974z"/>
        <path fill="#fff" d="M260.664 106.714c15.285 23.729 8.425 55.287-15.164 70.585-23.709 15.297-55.241 8.431-70.526-15.177-15.284-23.729-8.424-55.288 15.165-70.585 23.588-15.297 55.241-8.552 70.525 15.177z" opacity=".4"/>
        <path fill="#fff" d="M225.164 37.636l-6.312 23.994 19.551 5.152 6.312-23.994-19.551-5.152z" opacity=".8"/>
        <path fill="#FA968D" d="M247.064 45.404c-.722 2.65-3.37 4.095-5.897 3.493-2.648-.723-4.092-3.372-3.49-5.902.722-2.65 3.369-4.095 5.897-3.493 2.647.602 4.212 3.252 3.49 5.902z"/>
        <path fill="#fff" d="M240.084 42.634l1.444 3.493 4.453-3.252-3.61 1.204-2.287-1.445z"/>
        <path fill="#CBCFFF" d="M226.725 46.989l-.184.699 11.872 3.127.184-.698-11.872-3.128zM226.055 49.648l-.184.699 11.872 3.128.184-.7-11.872-3.127zM225.391 52.31l-.184.699 11.988 3.158.184-.698-11.988-3.16zM224.619 54.84l-.183.698 11.87 3.128.184-.699-11.871-3.128z"/>
        <path fill="#fff" d="M134.129 151.123l-19.303 6.023 7.378 23.689 19.303-6.023-7.378-23.689z" opacity=".8"/>
        <path fill="#7AB6F6" d="M137.545 152.005c.843 2.529-.601 5.3-3.249 6.143-2.527.843-5.296-.603-6.138-3.252-.842-2.53.602-5.3 3.249-6.144 2.648-.722 5.296.723 6.138 3.253z"/>
        <path fill="#CBCFFF" d="M132.948 160.545l-11.719 3.656.214.69 11.72-3.656-.215-.69zM133.661 163.095l-11.72 3.656.215.69 11.72-3.656-.215-.69zM134.63 165.705l-11.835 3.692.215.69 11.834-3.692-.214-.69zM135.345 168.252l-11.72 3.656.215.69 11.72-3.656-.215-.69z"/>
        <path fill="#fff" d="M134.296 154.293l-1.083.361-.24-.602c-.121-.241-.121-.482-.121-.602 0-.121.121-.362.241-.603l.481-.963c.121-.241.121-.482 0-.723-.12-.241-.24-.361-.361-.482-.24-.12-.481-.12-.722 0-.241.121-.361.241-.481.362-.121.24-.121.481-.121.722l-1.203.362c-.12-.603 0-1.084.241-1.566.24-.482.722-.723 1.323-.964.602-.241 1.084-.12 1.565 0 .481.241.722.602.963 1.084.12.362.12.723 0 1.084-.121.241-.121.362-.121.362 0 .12-.12.241-.12.361-.12.12-.12.241-.241.361 0 .121-.12.121-.12.241-.12.121-.12.362 0 .603l.12.602zm.121 2.288c-.241.121-.361 0-.602 0-.241-.12-.361-.241-.361-.481-.12-.241 0-.362 0-.603.12-.241.241-.361.481-.361.241-.121.361 0 .602 0 .241.12.361.241.361.482.121.241 0 .361 0 .602-.12.12-.241.241-.481.361z"/>
        <path fill="#2A2B7C" d="M266.321 102.98c-17.33-26.86-53.074-34.57-80.033-17.225-26.838 17.346-34.541 53.12-17.21 80.101 17.33 26.861 53.075 34.57 80.033 17.225 26.838-17.345 34.541-53.24 17.21-80.101zm-20.941 74.319c-23.709 15.298-55.241 8.432-70.525-15.177-15.285-23.729-8.425-55.287 15.164-70.585 23.709-15.297 55.241-8.431 70.525 15.177 15.405 23.729 8.545 55.288-15.164 70.585z"/>
        <path fill="#E7A588" d="M312.656 244.511c-5.055-10.359-13.6-29.992-21.062-33.485-7.341-3.614-3.008 8.19-3.008 8.19s1.564 6.987 4.573 15.539c3.009 8.552 1.685 19.392-.361 20.115-2.046.723-6.379-39.147-16.97-41.435-7.1-1.446-.962 24.21-1.685 51.192-.722 26.981.121 24.692 8.184 39.026 8.064 14.334 3.37 20.718 13.119 44.086 9.628-2.771 28.041-3.132 36.105-8.432-4.935-16.14-16.368-30.836-17.692-43.604-2.286-18.911 3.731-40.833-1.203-51.192z"/>
        <path fill="#fff" d="M281.005 222.589l-6.981 1.204s-1.444-6.624 1.565-7.347c4.573-1.205 5.416 6.143 5.416 6.143z" opacity=".3"/>
        <path fill="#4B5B98" d="M84.952 301.606l38.512-.602-10.832 48.783s-3.37 5.42-29.125 6.986c-25.634 1.566-23.83-6.384-23.83-6.384l25.275-48.783zM279.92 310.639l40.919-13.249 21.663 50.59s-6.98 5.661-23.107 12.888-28.042-.241-28.042-.241l-11.433-49.988z"/>
        <path fill="#fff" d="M232.142 95.392s-34.42-14.454-56.203 35.533c0 0-.963-56.25 56.203-35.533z"/>
        <path fill="#569DE5" d="M102.884 139.597c21.868 0 39.596-17.742 39.596-39.628 0-21.887-17.728-39.63-39.596-39.63-21.868 0-39.595 17.743-39.595 39.63 0 21.886 17.727 39.628 39.595 39.628z"/>
        <path fill="#2E3054" d="M119.494 94.79c-.24-3.614-.722-7.108-2.647-10.24-5.175-8.07-14.924-12.285-23.469-6.383-2.768 1.927-4.332 4.818-4.573 8.07-.24 3.132 2.407 8.552.24 11.202-1.805 2.168-5.535 3.614-7.702 5.661-3.009 2.891-6.499 7.468-7.341 11.564-1.444 6.866 3.851 12.527 9.869 14.695 9.507 3.373 18.895 1.686 28.041-1.325 5.296-1.807 15.526-.12 17.933-6.384 1.805-4.577-4.333-6.866-6.74-9.516-3.972-4.697-3.249-11.081-3.611-17.345z"/>
        <path fill="#fff" d="M73.52 132.129s6.258 6.023 27.078 8.191c20.821 2.168 30.57-8.191 30.57-8.191-1.445-3.734-6.74-15.057-19.618-19.513 0 0-16.127-.964-18.173-1.205-.12 0-16.608 5.782-19.858 20.718z"/>
        <path fill="#E6975E" d="M99.636 97.198c-1.083 1.807.12 6.264-.722 8.191-1.083 2.168-2.888 4.216-4.814 5.3-1.925 1.084-1.203 1.807.12 3.975 1.565 2.529 11.193 12.286 14.082 10.841 5.295-2.409 6.739-10.239 3.129-14.214-1.565-1.686-2.768-3.613-3.37-5.781-.481-2.048.602-7.107-.843-8.312-.722-.602-6.137-1.084-6.98-.602-.12 0-.361.241-.602.602z"/>
        <path fill="#ECB49F" d="M110.346 109.966c-.963-1.325-1.805-2.77-2.166-4.336-.482-2.048.601-7.107-.843-8.311-.602-.482-4.092-.843-5.897-.843 0 1.806.241 3.854-.241 4.938-.361.843-.962 1.446-1.564 2.048 1.324 3.252 3.731 5.782 7.462 6.745 1.203.121 2.286.121 3.249-.241z"/>
        <path fill="#E6975E" d="M116.725 88.165s1.925 20.115-7.582 20.356c-9.508.12-13.72-10.84-14.322-18.79-.602-8.914.36-11.564 11.433-11.925 10.832-.482 10.471 10.359 10.471 10.359z"/>
        <path fill="#2E3054" d="M100.118 76.722c-4.092 1.686-6.018 5.3-6.5 9.997-.48 4.577 2.648 8.673 2.769 13.25 0-3.012-.361-9.516 3.731-9.998 4.814-.602 8.785 2.41 13.479 2.41 4.212 0 7.462-3.855 6.98-8.192-3.249 2.048-4.092-.36-5.175-3.01-2.046-5.06-10.35-6.505-15.284-4.457z"/>
        <path fill="#454F6B" d="M190.982 125.746c-2.167 2.168-3.49 4.457-3.49 7.709 0 1.686.24 2.891.962 4.336.602 1.325 2.046 2.53 2.407 3.854-2.166.121-3.851.121-5.656 1.687-5.536 4.697-5.777 15.779 2.046 18.79 1.324.482 3.129.723 4.332.241-2.647-1.566-6.017 3.373-3.851 5.902 2.648 3.012 9.027 3.132 12.637 3.253 4.212.241 10.591.963 13.961-1.807 2.648-2.168 3.971-6.505 4.573-9.636 1.083 2.409 2.166 5.42 4.935 6.384 2.647.843 5.776-.603 7.221-2.891 1.444-2.168.842-5.18-.602-7.107-.722-.964-4.935-5.902-6.138-5.541 5.295-2.047 5.295-7.709 4.212-12.888-3.249-15.779-25.514-23.609-37.429-12.407l-.12.121z"/>
        <path fill="#ECB49F" d="M211.801 134.539c1.564 1.565.24 11.563.722 13.972 1.083 5.541 4.332 7.589 8.424 11.202 2.648 2.409 7.462 5.18 8.545 8.552 1.204 3.734-3.49 6.505-6.739 8.432-4.333 2.529-8.666 2.529-13.6 3.613-2.166.482-3.972 1.566-6.379 1.807-2.527.241-5.175 0-7.582-.361-4.332-.482-9.147-1.807-12.877-3.975-4.453-2.65-7.342-4.577-3.611-9.516 2.287-3.011 6.379-4.336 9.147-6.504 6.499-4.939 12.155-10.118 11.674-18.911-.241-6.505 8.545-12.045 12.276-8.311z"/>
        <path fill="#FA968D" d="M193.869 156.34s10.711 8.672 23.108-.361c0 0 11.313 7.468 14.682 10.117 3.37 2.65 3.972 10.962 7.462 22.405 0 0-26.236 20.717-66.433 1.565 0 0 2.045-19.151 6.258-23.126 4.332-4.096 14.923-10.6 14.923-10.6z"/>
        <path fill="#ECB49F" d="M212.884 142.85l-.24-5.782c-3.731-3.734-13.48-1.927-13.119 4.698v1.204c1.204 2.048 4.213 6.866 6.259 6.625 4.212-.602 5.776-2.891 7.1-6.745z"/>
        <path fill="#ECB49F" d="M194.711 126.106s2.768 20.477 10.591 21.08c7.823.602 10.35-11.082 10.952-19.152.722-9.034-.121-11.805-11.072-12.286-10.591-.603-10.471 10.358-10.471 10.358z"/>
        <path fill="#454F6B" d="M218.542 123.216c-.121.602-.241 1.325-.361 2.048 2.768-.121 2.768 4.456 1.805 6.022-.12.241-1.204 1.084-1.204 1.325 0 .602 1.084.482.963 1.446-.24 1.325-1.925 2.288-3.249 1.806-.963-.361-.843-1.566-.963-2.409-.361-2.288-1.204-3.372-2.648-4.818-1.203-1.084-3.249-2.77-3.37-4.457-2.166 3.855-6.86 4.457-10.831 3.614-.602 2.289-.121 3.614-2.407 4.939-2.167 1.325-2.648.12-4.453-1.084-.482-1.807.963-3.855 2.046-4.698-2.648-2.65-.361-6.745 2.166-9.395 3.129-3.373 6.98-4.698 11.313-4.457 2.046.12 4.814 1.084 6.379 2.529 1.203 1.084 2.407 1.807 2.527 4.337 2.287.481 2.527 1.686 2.287 3.252z"/>
        <path fill="#fff" d="M201.451 139.116s4.573 2.77 9.508-.121c-.12 0-4.573 9.516-9.508.121zM195.555 154.534l-1.565 1.806s2.768 3.975 10.832 4.216c8.063.241 12.276-4.577 12.276-4.577l-2.167-1.566c-.12 0-11.553 7.589-19.376.121z"/>
        <path fill="#CBCFFF" d="M329.145 74.313c8.665 13.37 4.814 31.318-8.665 39.99-13.359 8.673-31.291 4.818-39.957-8.672-8.665-13.491-4.814-31.318 8.666-39.99 13.359-8.673 31.291-4.819 39.956 8.672z"/>
        <path fill="#ECB49F" d="M309.048 85.516s.361 9.395 1.444 11.202c1.083 1.807 5.536 3.132 9.387 5.179 3.851 2.169-8.304 10.48-20.098 8.793-11.795-1.686-11.313-7.106-11.313-7.106l10.59-6.625s3.009-2.77 2.889-6.625c-.12-3.734 4.934-6.986 7.101-4.818z"/>
        <path fill="#ECB49F" d="M309.168 91.056l-.12-3.372c-2.166-2.169-7.221 1.084-7.101 4.938v.12c.723 1.205 1.685 2.048 2.768 2.048 2.287 0 3.611-1.566 4.453-3.734z"/>
        <path fill="#ECB49F" d="M298.576 81.54s.602 11.684 6.379 11.805c5.777.24 6.499-6.144 6.86-10.72.361-5.18-.121-6.746-6.86-6.987-6.379-.361-6.379 5.902-6.379 5.902z"/>
        <path fill="#2E3054" d="M314.223 78.89v.483c0 1.806-1.204 3.974-3.129 3.854-1.926 0-2.407-1.807-3.852-2.65-.842-.482-1.805-.12-2.647.24-2.167.965-3.972 2.892-6.499 2.892-1.204 0-2.528-.482-3.009-1.807-.361-.964 0-3.011 1.324-2.77-1.083-.241-1.805-1.687-1.204-2.65.602-1.084 1.806-.964 2.889-.964.12-1.566.963-2.53 2.407-3.132 1.805-.843 4.693-1.445 6.619-.602 1.926.723 3.731 3.252 3.851 5.3 0-.12 2.046.482 2.287.602.481.12.842.602.963 1.205z"/>
        <path fill="#fff" d="M301.947 88.648s2.648 1.566 5.536-.12c0 .12-2.647 5.66-5.536.12z"/>
        <path fill="#4B5B98" d="M325.896 112.859c-1.925-6.625-5.054-10.239-5.054-10.239l-7.101-3.614-.722.482s-1.926 1.084-4.814 1.807c-6.259 1.084-11.193-2.288-11.674-2.53l-7.703 4.096s-3.129 3.614-5.055 10.118c0 0 5.898 7.107 17.09 7.468 11.313.12 25.033-7.588 25.033-7.588z"/>
        <path fill="#fff" d="M294.484 99.85l-.361.12c1.083.722 6.018 3.493 11.554 3.493 3.249 0 6.619-.964 9.507-3.734l-.24-.12c-7.582 7.106-18.294 1.445-20.46.24z"/>
        <path fill="#2A2B7C" d="M180.03 74.915c12.496 0 22.626-10.139 22.626-22.645 0-12.507-10.13-22.645-22.626-22.645s-22.626 10.139-22.626 22.645 10.13 22.645 22.626 22.645z"/>
        <path fill="#fff" d="M180.03 74.915c12.496 0 22.626-10.139 22.626-22.645 0-12.507-10.13-22.645-22.626-22.645s-22.626 10.139-22.626 22.645 10.13 22.645 22.626 22.645z" opacity=".3"/>
        <path fill="#FABBA4" d="M186.049 43.959c.842 1.565 1.083 3.01 1.323 4.697.482 2.048 1.445 3.734 1.204 5.902-.241 2.048-3.129 4.337-5.175 4.337 0 .963.722 1.927 1.324 2.65 1.444 1.686 3.971 2.408 3.971 2.408s-.24 7.228-10.47 4.94c-10.23-2.29-9.508-5.421-9.508-5.421s3.129-.843 4.092-2.048c.963-1.205.842-8.552.842-8.552s-1.925-4.577-.722-7.227c1.324-2.77 7.342-7.589 13.119-1.687z"/>
        <path fill="#F89B79" d="M177.864 55.161c-.12 1.084.843 2.168 1.926 3.011.963.964 3.731.603 3.731.603s-.121.482.481 1.445c-7.221.843-6.138-5.059-6.138-5.059z"/>
        <path fill="#2E3054" d="M177.948 46.248c.361.24.722.482 1.083.843.361.482.722 1.325.482 2.048-.121.361-1.685 1.325-1.685.722.12.603-.482 1.084-1.083.964-.843 0-.843-.602-1.445-1.084.482.482-1.925 1.325-2.647.843-.722-.482-1.324-1.807-1.083-2.77.361-1.205 2.166-1.566 3.249-1.807 1.083-.241 2.166-.241 3.129.24z"/>
        <path fill="#fff" d="M163.783 70.94c.722-6.745 9.628-9.877 9.628-9.877l10.832 3.975 1.324-3.131c3.731 1.084 9.989 6.504 12.516 8.793v3.493s-2.527 6.022-16.969 4.938c-14.442-1.084-17.21-4.938-17.21-4.938l-.121-3.252z"/>
        <path fill="#FA6462" d="M185.447 68.05l5.295 6.142h-6.017l-.361-6.022-1.204-.723.482-2.409h.481l2.287 1.686-.963 1.325z"/>
        <path fill="#2E3054" d="M181.475 49.74c0-1.204.722-2.168 1.564-2.168.843 0 1.565.964 1.565 2.168 0 1.205-.722 2.168-1.565 2.168-.842 0-1.564-.963-1.564-2.168zm.12 0c0 1.084.602 2.048 1.444 2.048.722 0 1.444-.843 1.444-2.048 0-1.084-.601-2.047-1.444-2.047-.842.12-1.444.963-1.444 2.047zM185.928 49.38c0-1.205.722-2.17 1.564-2.17.843 0 1.565.965 1.565 2.17 0 1.204-.722 2.167-1.565 2.167-.842 0-1.564-.963-1.564-2.168zm.12 0c0 1.083.602 2.047 1.444 2.047.722 0 1.445-.843 1.445-2.048 0-1.084-.602-2.048-1.445-2.048-.842.12-1.444.964-1.444 2.048z"/>
        <path fill="#EC9177" d="M185.445 49.018l1.445 4.818-1.445.482v-5.3z"/>
        <path fill="#2E3054" d="M186.289 50.343h-1.926v.12h1.926v-.12z"/>
        <path fill="#fff" d="M314.943 199.462c12.629 0 22.867-10.246 22.867-22.886 0-12.639-10.238-22.886-22.867-22.886-12.629 0-22.867 10.247-22.867 22.886 0 12.64 10.238 22.886 22.867 22.886z"/>
        <path fill="#7AB6F6" d="M331.552 196.21v-1.687c-.963-3.372-3.49-6.384-4.092-6.986-2.046-2.048-4.333-3.132-6.98-3.854-4.574-1.325-11.073-.241-15.044 2.409-1.083.722-2.287 2.047-3.25 3.493-1.203 1.807-2.647 4.818-3.37 6.745 0 0 6.62 6.023 18.053 5.42 11.313-.722 14.683-5.54 14.683-5.54z"/>
        <path fill="#BA6B4F" d="M318.554 175.974c.963.964.481 2.891.842 4.096.361 1.565 1.685 3.131 2.768 3.974.602.603-.842-.602-3.369 2.048-2.528 2.53-5.657 3.614-8.666 3.975-1.324.121-2.647 0-3.49-1.084-1.444-1.807.722-3.011 1.805-4.457 1.565-2.288 2.167-4.336 1.926-7.227-.241-2.891 6.499-3.011 8.184-1.325z"/>
        <path fill="#974B30" d="M317.952 179.828s-5.175.843-7.943.602c-.241 1.084-.481 2.169-1.083 3.012.842 0 6.739-.482 9.026-3.614z"/>
        <path fill="#BA6B4F" d="M307.361 170.915c-.481 1.446-.722 2.891-.602 3.855.121 1.566.121 3.372.843 4.697 1.925 3.734 8.183 1.205 10.229-1.084.843-.843 1.685-2.047 2.167-3.252.842-2.048-.121-4.457-1.204-6.384-.481-.843-1.564-2.289-2.286-2.65-.963-.602-2.768-.482-3.852-.482-2.647 0-4.453 2.65-5.295 5.3z"/>
        <path fill="#BA6B4F" d="M307.723 172.48s-1.805 4.096-1.926 3.975c-.12-.12 2.287.482 2.287.482l-.361-4.457z"/>
        <path fill="#974B30" d="M307.723 172.48s-1.805 4.096-1.926 3.975c-.12-.12 2.287.482 2.287.482l-.361-4.457z"/>
        <path fill="#2E3054" d="M312.054 171.397c.843.12 2.889-.482 3.611-.121 1.083.482.481 3.373.361 4.216-.481 2.168-1.805 3.614-3.009 5.421 4.333.24 8.786-.723 9.628-5.421.843-4.216-1.444-9.275-5.656-10.841-2.407-.843-5.777-.843-7.823.844-1.203.963-2.648 3.854-1.083 5.179 1.083.843 2.768.602 3.971.723z"/>
        <path fill="#fff" d="M314.703 177.179c0 .361.241.602.602.602s.602-.241.602-.602c0-.362-.241-.603-.602-.603-.361-.12-.602.241-.602.603z"/>
        <path fill="#CBCFFF" d="M50.653 210.424c11.499 0 20.82-9.33 20.82-20.839 0-11.508-9.321-20.838-20.82-20.838-11.5 0-20.821 9.33-20.821 20.838 0 11.509 9.322 20.839 20.82 20.839z"/>
        <path fill="#BA6B4F" d="M64.373 201.752c-3.49-2.048-8.425-3.734-8.425-3.734l-.963-12.287c-1.925-2.047-6.017 3.494-6.017 3.494l-2.046 8.913-9.147 3.614s-.24 2.65 3.13 4.938h22.264c2.528-1.686 2.889-3.854 1.204-4.938z"/>
        <path fill="#ECB49F" d="M55.707 195.608l-.482-9.998c-1.925-2.047-6.017 3.493-6.017 3.493l-1.806 6.625c2.167 2.53 4.574 3.132 8.305-.12z"/>
        <path fill="#BA6B4F" d="M46.681 185.249c0 .121 0 .241-.12.482-.24 1.205-.361 2.53-.602 3.855-.24 1.686.24 4.215 1.324 5.42 2.166 2.529 5.657 3.373 8.665-.121 3.852-4.456.361-16.983-6.138-14.213-1.083.482-1.805.482-2.407 1.446-.36.963-.481 2.168-.722 3.131z"/>
        <path fill="#BA6B4F" d="M46.56 188.983c-.36-.602-1.203-1.325-1.203-.121 0 .723.361 1.807.723 2.289.36-.241.601-.723.722-1.205l-.241-.963z"/>
        <path fill="#445998" d="M64.974 201.872c-1.685-.964-3.73-1.927-5.536-2.65-.481-.12-2.166-.843-2.166-.843-6.138 8.913-11.434.361-11.434.361l-1.203.362-6.98 2.77s-.482 1.686-.602 4.939c0 0 1.564 4.938 11.433 5.781s17.33-5.781 17.33-5.781c.12-2.169.12-4.337-.842-4.939z"/>
        <path fill="#fff" d="M58.595 198.98h-.12c-.843 1.807-2.648 4.216-6.38 4.578-3.73.361-5.776-1.325-6.739-2.891-.36-.482-.602-.964-.722-1.446h-.12c.24.482.481.964.842 1.566.963 1.446 2.768 3.012 5.897 3.012h.963c3.731-.482 5.536-3.012 6.379-4.819z"/>
        <path fill="#002C43" d="M50.894 188.019c1.805 0 3.129.241 4.453 1.687 0-.362-.24-.723-.24-1.084.36 0 .842.12 1.203.361-.12-.361-.241-.602-.12-.964.601-.12 1.082.241 1.443.603 0-1.446-.24-2.891-1.564-3.734-1.685-1.084-3.61-.844-5.296 0l.12 3.131z"/>
        <path fill="#445998" d="M45.477 186.333s.12-5.54 5.656-6.022c5.897-.482 6.379 4.697 6.499 6.384 0 0-3.851.482-7.1.482-3.25-.121-3.732-.241-5.055-.844z"/>
        <path fill="#7AB6F6" d="M45.477 186.333s-5.055 2.168-1.084 2.65c3.972.482 12.878-2.168 12.878-2.168s-9.508.723-11.794-.482z"/>
        <path fill="#ECB49F" d="M51.013 189.225l-.36 4.095h1.203l-.843-4.095z"/>
        <path fill="#DA97B8" d="M217 245.5c0 5.806-4.694 10.5-10.5 10.5s-10.5-4.694-10.5-10.5 4.694-10.5 10.5-10.5c5.806.062 10.5 4.756 10.5 10.5z" opacity=".3"/>
        <path fill="#454F6B" d="M164.263 218.012c0 .482-.361.964-.723.964-.361 0-.722-.362-.722-.964v-3.011c0-.482.361-.964.722-.964.362 0 .723.361.723.964v3.011zM164.263 206.449c0 .481-.361.963-.723.963-.361 0-.722-.361-.722-.963v-3.012c0-.482.361-.963.722-.963.362 0 .723.361.723.963v3.012zM170.16 213.795c.481.241.602.723.361 1.084-.241.362-.722.482-1.204.241l-2.527-1.445c-.481-.241-.602-.723-.361-1.084.241-.362.722-.482 1.203-.241l2.528 1.445zM160.172 208.014c.481.241.601.723.361 1.084-.241.362-.723.482-1.204.241l-2.527-1.445c-.482-.241-.602-.723-.361-1.084.24-.362.722-.482 1.203-.241l2.528 1.445zM169.438 206.449c.482-.241.963-.121 1.204.24.241.362 0 .844-.361 1.085l-2.527 1.445c-.482.241-.963.12-1.204-.241s0-.843.361-1.084l2.527-1.445zM159.45 212.23c.482-.241.963-.121 1.204.241.24.361 0 .843-.361 1.084L157.765 215c-.481.241-.963.121-1.203-.241-.241-.361 0-.843.361-1.084l2.527-1.445z"/>
    </g>
    <path fill="#569DE5" d="M232.97 278.039c-1.253-1.255-2.669-2.395-4.215-3.357-2.62-1.645-5.533-2.77-8.56-3.307-1.383-.245-2.782-.375-4.198-.375-6.396 0-12.417 2.493-16.941 7.022-7.957 7.968-9.341 20.204-3.352 29.736.96 1.531 2.083 2.949 3.352 4.203 4.524 4.53 10.545 7.039 16.957 7.039 6.412 0 12.433-2.493 16.957-7.039 4.524-4.529 7.03-10.558 7.03-16.977-.016-6.387-2.506-12.416-7.03-16.945zm-4.703 18.818h-10.48v10.298c0 1.026-.83 1.841-1.855 1.841s-1.855-.831-1.855-1.841v-10.298h-10.35c-1.025 0-1.839-.831-1.839-1.857s.83-1.857 1.839-1.857h10.35v-10.558c0-1.027.83-1.842 1.855-1.842s1.855.831 1.855 1.842v10.558h10.48c1.025 0 1.839.831 1.839 1.857s-.814 1.857-1.839 1.857z"/>
    <defs>
        <clipPath id="clip0">
            <path fill="#fff" d="M0 0H343V341H0z" transform="translate(19 23)"/>
        </clipPath>
    </defs>
</svg>
