<svg xmlns="http://www.w3.org/2000/svg" width="390" height="370" fill="none" viewBox="0 0 390 370">
    <path fill="#EFEEFE" d="M38.275 324.726c-40.748-50.317-41.927-76.65-35.141-91.418 6.785-14.804 20.177-14.875 28.605-33.842 10.714-24.127-4.856-37.685-1.178-68.253 3.143-26.226 19.82-60.174 46.462-70.031 31.82-11.78 51.497 20.532 82.21 8.896 29.998-11.352 22.32-46.332 56.604-62.915 25.249-12.241 61.176-8.612 78.032 9.501 12.499 13.416 6.464 26.191 19.07 45.692 16.107 24.98 39.105 16.262 48.248 33.841 13.285 25.586-27.07 50.247-18.463 87.825 6.392 27.863 31.998 29.216 45.283 60.531 11.928 28.148-31.787 90.186-75.068 92.68-43.28 2.494-44.273-22.948-120.821 17.784-76.547 40.732-143.59-12.572-153.843-30.291z" opacity=".4"/>
    <path stroke="#D3D5FC" stroke-miterlimit="10" stroke-width="3.175" d="M71.424 266.848c-.288 2.811-1.84 15.887-12.572 22.163-6.426 3.744-16.744 5.389-19.732 1.283-2.928-4.013 1.748-12.539 6.623-17.159 9.093-8.626 22.451-6.808 25.68-6.287zM78.493 268.718c2.105 1.863 11.785 10.83 11.576 23.567-.136 7.631-3.81 17.317-8.547 17.495-4.613.16-9.16-8.801-10.46-15.603-2.456-12.749 5.465-23.034 7.431-25.459zM73.688 258.575c-2.415 1.305-13.757 7.144-25.198 2.097-6.857-3.013-14.397-10.218-12.933-14.808 1.412-4.463 11.03-5.404 17.632-4.078 12.354 2.508 18.99 13.976 20.498 16.789z"/>
    <path stroke="#D3D5FC" stroke-miterlimit="10" stroke-width="3.175" d="M97.987 245.656c-5.693 5.767-12.291 11.73-19.921 17.645-10.68 8.26-21.31 14.779-31.117 19.874"/>
    <path stroke="#D3D5FC" stroke-miterlimit="10" stroke-width="3.175" d="M81.722 295.715c.703-14.973-3.573-33.69-3.573-33.69s-9.847-9.107-29.875-12.151"/>
    <path fill="#DA97B8" d="M357.013 265.476c0 5.793-4.697 10.476-10.507 10.476-5.809 0-10.506-4.683-10.506-10.476 0-5.793 4.697-10.476 10.506-10.476 5.81.062 10.507 4.745 10.507 10.476z" opacity=".3"/>
    <path fill="#CBCFFF" d="M75.004 105.492c0 1.931-1.565 3.492-3.502 3.492-1.936 0-3.502-1.561-3.502-3.492S69.566 102 71.502 102c1.937.021 3.502 1.582 3.502 3.492zM313.004 293.492c0 1.931-1.565 3.492-3.502 3.492-1.936 0-3.502-1.561-3.502-3.492s1.566-3.492 3.502-3.492c1.937.021 3.502 1.582 3.502 3.492z"/>
    <path fill="#454F6B" d="M274.946 67.503c0 .48-.361.961-.722.961s-.722-.36-.722-.961v-3.004c0-.481.361-.962.722-.962s.722.36.722.962v3.004zM274.946 55.966c0 .48-.361.961-.722.961s-.722-.36-.722-.961V52.96c0-.48.361-.961.722-.961s.722.36.722.961v3.005zM280.848 63.296c.481.24.602.72.361 1.081-.241.36-.723.481-1.204.24l-2.529-1.442c-.482-.24-.602-.72-.361-1.081.24-.36.722-.48 1.204-.24l2.529 1.442zM270.854 57.528c.481.24.602.721.361 1.082-.241.36-.723.48-1.204.24l-2.529-1.442c-.482-.24-.602-.721-.362-1.082.241-.36.723-.48 1.205-.24l2.529 1.442zM280.126 55.966c.482-.24.963-.12 1.204.24s0 .841-.361 1.082l-2.529 1.442c-.482.24-.964.12-1.204-.24-.241-.36 0-.842.361-1.082l2.529-1.442zM270.132 61.733c.481-.24.963-.12 1.204.24.241.361 0 .842-.361 1.082l-2.529 1.443c-.482.24-.964.12-1.205-.24-.24-.361 0-.842.362-1.082l2.529-1.443z"/>
    <path fill="#CBCFFF" d="M294.586 128.203c35.408 54.476 19.671 127.602-35.409 162.937-54.587 35.336-127.862 19.631-163.27-35.335-35.409-54.967-19.672-127.602 35.408-162.937 54.587-35.336 127.862-19.631 163.271 35.335z"/>
    <path fill="#ECB49F" d="M212.457 173.847s1.475 38.28 5.901 45.642c4.426 7.362 22.622 12.76 38.359 21.103 15.737 8.834-33.933 42.698-82.127 35.827-48.194-6.871-46.227-28.956-46.227-28.956l43.276-26.992s12.295-11.288 11.803-26.993c-.492-15.214 20.163-28.465 29.015-19.631z"/>
    <path fill="#ECB49F" d="M212.953 196.421l-.492-13.741c-8.852-8.834-29.507 4.417-29.015 20.121v.491c2.951 4.908 6.885 8.343 11.311 8.343 9.344 0 14.753-6.38 18.196-15.214z"/>
    <path fill="#ECB49F" d="M169.672 157.65s2.459 47.605 26.064 48.096c23.606.982 26.556-25.029 28.032-43.679 1.475-21.103-.492-27.483-28.032-28.465-26.064-1.472-26.064 24.048-26.064 24.048z"/>
    <path fill="#2E3054" d="M233.607 146.853v1.964c0 7.361-4.918 16.195-12.786 15.704-7.869 0-9.836-7.361-15.737-10.797-3.443-1.963-7.377-.491-10.82.982-8.852 3.926-16.228 11.778-26.556 11.778-4.918 0-10.327-1.963-12.294-7.361-1.476-3.926 0-12.27 5.409-11.288-4.426-.982-7.376-6.871-4.917-10.797 2.458-4.417 7.376-3.926 11.802-3.926.492-6.38 3.935-10.306 9.836-12.76 7.377-3.436 19.179-5.89 27.048-2.454 7.868 2.944 15.245 13.251 15.737 21.594 0-.491 8.36 1.963 9.344 2.454 1.967.49 3.442 2.454 3.934 4.907z"/>
    <path fill="#fff" d="M183.447 186.608s10.819 6.38 22.622-.491c0 .491-10.819 23.067-22.622.491z"/>
    <path fill="#4B5B98" d="M281.307 285.253c-7.869-26.992-20.655-41.715-20.655-41.715l-29.015-14.723-2.951 1.963s-7.868 4.417-19.671 7.361c-25.573 4.417-45.736-9.324-47.703-10.306l-31.474 16.686s-12.786 14.723-20.654 41.225c0 0 24.097 28.956 69.832 30.428 46.228.491 102.291-30.919 102.291-30.919z"/>
    <path fill="#fff" d="M152.946 232.247l-1.475.491c4.426 2.945 24.589 14.232 47.21 14.232 13.279 0 27.048-3.926 38.851-15.214l-.983-.49c-30.983 28.955-74.751 5.889-83.603.981z"/>
</svg>
