<svg xmlns="http://www.w3.org/2000/svg" width="109" height="24" fill="none" viewBox="0 0 109 24">
    <path fill="#143980" d="M39.92 12.92h-7.96c.16.747.52 1.327 1.08 1.74.573.413 1.28.62 2.12.62 1.133 0 1.993-.413 2.58-1.24l1.78 1.04c-.973 1.453-2.433 2.18-4.38 2.18-1.613 0-2.927-.493-3.94-1.48-1-1-1.5-2.26-1.5-3.78 0-1.48.493-2.727 1.48-3.74.973-1.013 2.24-1.52 3.8-1.52 1.453 0 2.653.513 3.6 1.54.947 1.027 1.42 2.273 1.42 3.74 0 .267-.027.567-.08.9zm-7.98-1.76h5.88c-.147-.787-.48-1.393-1-1.82-.507-.427-1.127-.64-1.86-.64-.8 0-1.467.22-2 .66-.533.44-.873 1.04-1.02 1.8zm16.693-2.72l-4.66 6.52h4.86V17h-7.8v-1.44l4.68-6.52h-4.48V7h7.4v1.44zm9.753 3.52h-7.4V9.88h7.4v2.08zm7.375 5.3c-1.506 0-2.766-.507-3.78-1.52-1-1.027-1.5-2.273-1.5-3.74 0-1.493.5-2.74 1.5-3.74 1.014-1.013 2.274-1.52 3.78-1.52.974 0 1.86.233 2.66.7.8.467 1.4 1.093 1.8 1.88l-1.86 1.08c-.226-.48-.573-.853-1.04-1.12-.453-.28-.98-.42-1.58-.42-.88 0-1.62.3-2.22.9-.586.613-.88 1.36-.88 2.24 0 .88.294 1.627.88 2.24.6.6 1.34.9 2.22.9.587 0 1.114-.133 1.58-.4.48-.28.84-.66 1.08-1.14l1.86 1.06c-.426.8-1.046 1.433-1.86 1.9-.8.467-1.68.7-2.64.7zm8.222-.26h-2.16V2.4h2.16V17zm10.968-1.26c-1.014 1.013-2.26 1.52-3.74 1.52-1.48 0-2.727-.507-3.74-1.52-1.027-1.027-1.54-2.273-1.54-3.74s.513-2.713 1.54-3.74c1.013-1.013 2.26-1.52 3.74-1.52 1.48 0 2.726.507 3.74 1.52 1.026 1.027 1.54 2.273 1.54 3.74s-.514 2.713-1.54 3.74zM78.09 12c0 .907.3 1.66.9 2.26.6.6 1.34.9 2.22.9.88 0 1.62-.3 2.22-.9.6-.6.9-1.353.9-2.26 0-.907-.3-1.66-.9-2.26-.6-.6-1.34-.9-2.22-.9-.88 0-1.62.3-2.22.9-.6.6-.9 1.353-.9 2.26zm15.073 5.26c-1.507 0-2.767-.507-3.78-1.52-1-1.027-1.5-2.273-1.5-3.74 0-1.493.5-2.74 1.5-3.74 1.013-1.013 2.273-1.52 3.78-1.52.973 0 1.86.233 2.66.7.8.467 1.4 1.093 1.8 1.88l-1.86 1.08c-.227-.48-.574-.853-1.04-1.12-.454-.28-.98-.42-1.58-.42-.88 0-1.62.3-2.22.9-.587.613-.88 1.36-.88 2.24 0 .88.293 1.627.88 2.24.6.6 1.34.9 2.22.9.586 0 1.113-.133 1.58-.4.48-.28.84-.66 1.08-1.14l1.86 1.06c-.427.8-1.047 1.433-1.86 1.9-.8.467-1.68.7-2.64.7zm10.341-5.36l4.56 5.1h-2.58l-4.1-4.62V17h-2.16V3h2.16v8.42l3.88-4.42h2.64l-4.4 4.9zM11.99 4.478c1.237 0 2.24-1.002 2.24-2.239C14.23 1.002 13.226 0 11.99 0c-1.236 0-2.239 1.002-2.239 2.239 0 1.237 1.003 2.239 2.24 2.239z"/>
    <path fill="#143980" d="M9.048 8.086c.333.315.981.537 1.333.537.795.018 2.424.018 3.22 0 .425 0 .943-.148 1.332-.537.721-.703 2.85-2.85 2.85-2.85.536-.536.647-1.406.203-2.035-.574-.814-1.721-.87-2.387-.203 0 0-1.703 2.109-2.498 2.498-.5.24-1.721.222-2.24 0-.814-.333-2.479-2.48-2.479-2.48-.536-.537-1.406-.648-2.035-.204-.814.574-.87 1.721-.204 2.388.019 0 2.147 2.165 2.905 2.886z"/>
    <path fill="#7F87B6" d="M11.99 24c1.237 0 2.24-1.002 2.24-2.238 0-1.237-1.003-2.24-2.24-2.24-1.236 0-2.239 1.003-2.239 2.24 0 1.236 1.003 2.238 2.24 2.238z"/>
    <path fill="#7F87B6" d="M9.048 15.914c.333-.315.981-.537 1.333-.537.795-.018 2.424-.018 3.22 0 .425 0 .943.148 1.332.537.721.703 2.85 2.85 2.85 2.85.536.536.647 1.406.203 2.035-.574.814-1.721.87-2.387.204 0 0-1.703-2.11-2.498-2.499-.5-.24-1.721-.222-2.24 0-.814.333-2.479 2.48-2.479 2.48-.536.537-1.406.648-2.035.203-.814-.573-.87-1.72-.204-2.387.019-.018 2.147-2.183 2.905-2.886z"/>
    <path fill="#A3A8CC" d="M2.239 14.229c1.237 0 2.239-1.002 2.239-2.239 0-1.237-1.002-2.239-2.239-2.239C1.002 9.751 0 10.753 0 11.99c0 1.237 1.002 2.239 2.239 2.239z"/>
    <path fill="#A3A8CC" d="M8.086 14.951c.315-.333.537-.98.537-1.332.018-.796.018-2.424 0-3.22 0-.425-.148-.944-.537-1.332-.703-.74-2.85-2.868-2.85-2.868-.536-.537-1.406-.648-2.035-.204-.814.574-.87 1.721-.203 2.387 0 0 2.109 1.703 2.498 2.498.24.5.222 1.721 0 2.24-.333.814-2.48 2.479-2.48 2.479-.537.537-.648 1.406-.204 2.035.574.814 1.721.87 2.388.204 0-.019 2.165-2.128 2.886-2.887z"/>
    <path fill="#4B5B98" d="M21.761 14.23c1.236 0 2.239-1.002 2.239-2.239 0-1.237-1.003-2.239-2.239-2.239-1.237 0-2.239 1.002-2.239 2.239 0 1.237 1.002 2.239 2.239 2.239z"/>
    <path fill="#4B5B98" d="M15.914 14.951c-.315-.333-.537-.98-.537-1.332-.018-.796-.018-2.424 0-3.22 0-.425.148-.944.537-1.332.703-.722 2.85-2.85 2.85-2.85.536-.536 1.406-.647 2.035-.203.814.573.87 1.72.203 2.387 0 0-2.11 1.702-2.498 2.498-.24.5-.222 1.72 0 2.239.333.814 2.48 2.48 2.48 2.48.536.536.648 1.406.203 2.035-.573.814-1.72.87-2.387.203-.018-.037-2.183-2.146-2.886-2.905z"/>
</svg>
