<svg width="390" height="370" viewBox="0 0 390 370" fill="none" xmlns="http://www.w3.org/2000/svg">
<path opacity="0.4" d="M38.2749 324.726C-2.47302 274.409 -3.65153 248.076 3.13384 233.308C9.9192 218.504 23.3114 218.433 31.7395 199.466C42.4532 175.339 26.8826 161.781 30.561 131.213C33.7037 104.987 50.3814 71.0386 77.0229 61.1815C108.843 49.4028 128.52 81.7142 159.233 70.0778C189.231 58.7261 181.553 23.7458 215.837 7.163C241.086 -5.07835 277.013 -1.44864 293.869 16.6643C306.368 30.0799 300.333 42.8551 312.939 62.3558C329.046 87.3367 352.044 78.6183 361.187 96.1974C374.472 121.783 334.117 146.444 342.724 184.022C349.116 211.885 374.722 213.238 388.007 244.553C399.935 272.701 356.22 334.739 312.939 337.233C269.659 339.727 268.666 314.285 192.118 355.017C115.571 395.749 48.5279 342.445 38.2749 324.726Z" fill="#EFEEFE"/>
<path d="M187.444 104.562C184.891 105.159 172.897 107.762 161.628 101.032C154.893 96.9982 147.797 89.2392 149.645 85.6449C151.446 82.1263 161.289 83.3566 167.915 85.8936C180.28 90.6227 186.105 101.829 187.444 104.562Z" stroke="#D3D5FC" stroke-width="3.1746" stroke-miterlimit="10"/>
<path d="M188.695 113.7C188.288 116.172 186.072 127.678 174.861 131.831C168.138 134.309 157.582 134.397 154.691 130.321C151.887 126.346 157.062 119.324 162.234 115.874C171.917 109.391 185.447 112.809 188.695 113.7Z" stroke="#D3D5FC" stroke-width="3.1746" stroke-miterlimit="10"/>
<path d="M196.71 100.83C194.13 99.125 182.268 91.0114 179.995 78.9345C178.623 71.7 180.562 62.3603 185.493 62.0418C190.28 61.7227 196.785 70.0311 199.502 76.4352C204.564 88.4288 198.314 98.4736 196.71 100.83Z" stroke="#D3D5FC" stroke-width="3.1746" stroke-miterlimit="10"/>
<path d="M218.715 115.601C210.831 113.073 202.306 110.005 193.282 106.267C180.669 101.032 169.561 95.492 160.096 90.2031" stroke="#D3D5FC" stroke-width="3.1746" stroke-miterlimit="10"/>
<path d="M166.944 124.01C180.937 118.919 195.374 107.813 195.374 107.813C195.374 107.813 197.794 95.2667 188.682 75.6823" stroke="#D3D5FC" stroke-width="3.1746" stroke-miterlimit="10"/>
<path opacity="0.3" d="M252.156 258.911C252.156 264.703 247.459 269.387 241.649 269.387C235.84 269.387 231.143 264.703 231.143 258.911C231.143 253.118 235.84 248.435 241.649 248.435C247.459 248.496 252.156 253.18 252.156 258.911Z" fill="#DA97B8"/>
<path d="M107.067 130.204C107.067 132.135 105.501 133.696 103.565 133.696C101.628 133.696 100.062 132.135 100.062 130.204C100.062 128.273 101.628 126.712 103.565 126.712C105.501 126.732 107.067 128.294 107.067 130.204Z" fill="#CBCFFF"/>
<path d="M289.424 256.415L280.172 291.506L308.846 299.045L318.099 263.954L289.424 256.415Z" fill="white"/>
<path d="M321.551 267.777C320.492 271.652 316.608 273.766 312.902 272.885C309.018 271.829 306.9 267.953 307.783 264.254C308.842 260.379 312.725 258.265 316.432 259.146C320.315 260.026 322.61 263.902 321.551 267.777Z" fill="#6FCF97"/>
<path d="M311.312 263.726L313.431 268.834L319.962 264.078L314.666 265.839L311.312 263.726Z" fill="white"/>
<path d="M291.721 270.094L291.451 271.116L308.863 275.691L309.133 274.669L291.721 270.094Z" fill="#CBCFFF"/>
<path d="M290.738 273.983L290.469 275.005L307.881 279.579L308.15 278.557L290.738 273.983Z" fill="#CBCFFF"/>
<path d="M289.764 277.876L289.494 278.898L307.077 283.518L307.346 282.496L289.764 277.876Z" fill="#CBCFFF"/>
<path d="M288.633 281.575L288.363 282.597L305.773 287.171L306.043 286.149L288.633 281.575Z" fill="#CBCFFF"/>
<path d="M187.057 170.151C187.057 170.632 186.696 171.113 186.335 171.113C185.974 171.113 185.613 170.752 185.613 170.151V167.147C185.613 166.666 185.974 166.186 186.335 166.186C186.696 166.186 187.057 166.546 187.057 167.147V170.151Z" fill="#454F6B"/>
<path d="M187.057 158.614C187.057 159.095 186.696 159.576 186.335 159.576C185.974 159.576 185.613 159.215 185.613 158.614V155.61C185.613 155.129 185.974 154.648 186.335 154.648C186.696 154.648 187.057 155.009 187.057 155.61V158.614Z" fill="#454F6B"/>
<path d="M192.959 165.944C193.441 166.184 193.561 166.665 193.32 167.026C193.079 167.386 192.598 167.506 192.116 167.266L189.587 165.824C189.105 165.584 188.985 165.103 189.226 164.742C189.467 164.382 189.948 164.262 190.43 164.502L192.959 165.944Z" fill="#454F6B"/>
<path d="M182.965 160.177C183.447 160.417 183.567 160.898 183.326 161.258C183.085 161.619 182.604 161.739 182.122 161.499L179.593 160.056C179.111 159.816 178.991 159.335 179.232 158.975C179.473 158.614 179.954 158.494 180.436 158.734L182.965 160.177Z" fill="#454F6B"/>
<path d="M192.237 158.614C192.719 158.374 193.201 158.494 193.441 158.855C193.682 159.215 193.441 159.696 193.08 159.936L190.551 161.378C190.07 161.619 189.588 161.499 189.347 161.138C189.106 160.777 189.347 160.297 189.708 160.056L192.237 158.614Z" fill="#454F6B"/>
<path d="M182.243 164.382C182.725 164.142 183.206 164.262 183.447 164.622C183.688 164.983 183.447 165.463 183.086 165.704L180.557 167.146C180.075 167.386 179.594 167.266 179.353 166.906C179.112 166.545 179.353 166.064 179.714 165.824L182.243 164.382Z" fill="#454F6B"/>
<path d="M182.104 201.265C206.69 239.091 195.763 289.867 157.518 314.403C119.614 338.939 68.7338 328.034 44.1476 289.867C19.5613 251.7 30.4885 201.265 68.7338 176.729C106.638 152.193 157.518 163.098 182.104 201.265Z" fill="#FDE9E8"/>
<path d="M85.6769 207.438C81.93 211.178 79.6402 215.125 79.6402 220.734C79.6402 223.642 80.0565 225.719 81.3055 228.212C82.3463 230.497 84.8443 232.575 85.4688 234.86C81.7218 235.067 78.8076 235.067 75.6851 237.768C66.1097 245.87 65.6933 264.981 79.2239 270.175C81.5137 271.006 84.6361 271.421 86.7177 270.59C82.1382 267.89 76.3096 276.407 80.0565 280.769C84.6361 285.963 95.6687 286.171 101.914 286.378C109.199 286.794 120.232 288.04 126.06 283.262C130.64 279.523 132.93 272.045 133.971 266.643C135.844 270.798 137.718 275.992 142.505 277.653C147.085 279.108 152.497 276.615 154.995 272.668C157.493 268.928 156.452 263.735 153.954 260.411C152.705 258.749 145.42 250.232 143.338 250.855C152.497 247.324 152.497 237.56 150.624 228.628C145.003 201.414 106.493 187.911 85.8851 207.231C86.0933 207.023 85.8851 207.231 85.6769 207.438Z" fill="#454F6B"/>
<path d="M121.684 222.602C124.39 225.303 122.1 242.545 122.933 246.7C124.806 256.256 130.426 259.787 137.504 266.019C142.084 270.174 150.41 274.952 152.284 280.769C154.365 287.208 146.247 291.986 140.626 295.31C133.133 299.673 125.639 299.673 117.104 301.542C113.357 302.373 110.235 304.243 106.071 304.658C101.7 305.074 97.1205 304.658 92.9572 304.035C85.4633 303.204 77.1369 300.919 70.6838 297.18C62.9818 292.61 57.9859 289.286 64.4389 280.769C68.394 275.575 75.4716 273.29 80.2593 269.551C91.5001 261.034 101.284 252.101 100.451 236.936C100.035 225.718 115.231 216.163 121.684 222.602Z" fill="#ECB49F"/>
<path d="M90.6698 260.202C90.6698 260.202 109.196 275.159 130.637 259.579C130.637 259.579 150.204 272.459 156.033 277.029C161.861 281.599 162.902 295.933 168.939 315.668C168.939 315.668 123.56 351.399 54.0332 318.369C54.0332 318.369 57.572 285.338 64.8577 278.483C72.3515 271.42 90.6698 260.202 90.6698 260.202Z" fill="#FA968D"/>
<path d="M123.56 236.937L123.144 226.965C116.691 220.526 99.8299 223.642 100.454 235.067V237.144C102.536 240.676 107.74 248.985 111.279 248.57C118.565 247.531 121.271 243.584 123.56 236.937Z" fill="#ECB49F"/>
<path d="M92.1251 208.061C92.1251 208.061 96.9128 243.376 110.443 244.415C123.974 245.454 128.345 225.303 129.386 211.385C130.635 195.804 129.178 191.027 110.235 190.196C91.9169 189.157 92.1251 208.061 92.1251 208.061Z" fill="#ECB49F"/>
<path d="M133.344 203.076C133.136 204.114 132.927 205.361 132.719 206.607C137.507 206.399 137.507 214.293 135.842 216.994C135.634 217.409 133.76 218.864 133.76 219.279C133.76 220.318 135.634 220.11 135.425 221.772C135.009 224.057 132.095 225.719 129.805 224.888C128.14 224.265 128.348 222.187 128.14 220.733C127.515 216.786 126.058 214.917 123.56 212.424C121.478 210.554 117.94 207.646 117.732 204.737C113.985 211.385 105.866 212.424 98.9969 210.97C97.9561 214.917 98.7888 217.202 94.8337 219.487C91.0867 221.772 90.2541 219.695 87.1317 217.617C86.299 214.501 88.797 210.97 90.6704 209.515C86.0908 204.945 90.0459 197.882 94.4173 193.312C99.8296 187.495 106.491 185.21 113.985 185.626C117.523 185.833 122.311 187.495 125.017 189.988C127.099 191.858 129.18 193.104 129.389 197.467C133.344 198.298 133.76 200.375 133.344 203.076Z" fill="#454F6B"/>
<path d="M103.785 230.497C103.785 230.497 111.695 235.275 120.23 230.289C120.022 230.289 112.32 246.7 103.785 230.497Z" fill="white"/>
<path d="M93.587 257.088L90.8809 260.204C90.8809 260.204 95.6686 267.059 109.615 267.474C123.562 267.89 130.848 259.58 130.848 259.58L127.101 256.88C126.893 256.88 107.118 269.967 93.587 257.088Z" fill="white"/>
<path d="M360.213 85.5277C384.8 123.354 373.872 174.13 335.627 198.666C297.723 223.202 246.843 212.297 222.257 174.13C197.671 135.963 208.598 85.5278 246.843 60.9918C284.747 36.4558 335.627 47.3607 360.213 85.5277Z" fill="#CBCFFF"/>
<path d="M303.187 117.221C303.187 117.221 304.212 143.801 307.285 148.913C310.358 154.025 322.993 157.773 333.92 163.567C344.847 169.701 310.358 193.214 276.894 188.443C243.429 183.672 244.795 168.337 244.795 168.337L274.845 149.595C274.845 149.595 283.382 141.757 283.04 130.852C282.699 120.288 297.041 111.087 303.187 117.221Z" fill="#ECB49F"/>
<path d="M303.53 132.896L303.188 123.354C297.042 117.22 282.7 126.421 283.041 137.326C283.041 137.326 283.041 137.326 283.041 137.666C285.09 141.074 287.822 143.46 290.895 143.46C297.383 143.46 301.139 139.03 303.53 132.896Z" fill="#ECB49F"/>
<path d="M273.477 105.974C273.477 105.974 275.184 139.029 291.575 139.37C307.966 140.052 310.014 121.991 311.039 109.041C312.063 94.3876 310.697 89.9575 291.575 89.276C273.477 88.2537 273.477 105.974 273.477 105.974Z" fill="#ECB49F"/>
<path d="M317.872 98.4774C317.872 98.8182 317.872 99.159 317.872 99.8405C317.872 104.952 314.457 111.086 308.994 110.745C303.53 110.745 302.164 105.634 298.066 103.248C295.676 101.885 292.944 102.908 290.554 103.93C284.407 106.656 279.285 112.109 272.114 112.109C268.699 112.109 264.943 110.745 263.577 106.997C262.553 104.271 263.577 98.4774 267.333 99.159C264.26 98.4774 262.211 94.3881 263.919 91.6619C265.626 88.5949 269.041 88.9357 272.114 88.9357C272.456 84.5056 274.846 81.7793 278.944 80.0755C284.066 77.69 292.261 75.9861 297.725 78.3716C303.188 80.4162 308.311 87.5726 308.652 93.3658C308.652 93.025 314.457 94.7289 315.14 95.0697C316.506 95.4104 317.53 96.7735 317.872 98.4774Z" fill="#2E3054"/>
<path d="M283.043 126.082C283.043 126.082 290.555 130.512 298.751 125.741C298.751 126.082 291.238 141.758 283.043 126.082Z" fill="white"/>
<path d="M350.993 194.578C345.53 175.835 336.651 165.612 336.651 165.612L316.504 155.389C315.48 156.07 314.455 156.752 314.455 156.752C314.455 156.752 308.992 159.819 300.796 161.863C283.039 164.93 269.039 155.389 267.673 154.707L245.819 166.293C245.819 166.293 236.94 176.517 231.477 194.919C231.477 194.919 248.209 215.025 279.966 216.047C312.065 216.388 350.993 194.578 350.993 194.578Z" fill="#4B5B98"/>
<path d="M261.864 157.772L260.84 158.113C263.913 160.158 277.914 167.996 293.621 167.996C302.841 167.996 312.403 165.269 320.598 157.432L319.915 157.091C298.402 177.197 268.011 161.18 261.864 157.772Z" fill="white"/>
</svg>
