<svg width="418" height="348" viewBox="0 0 418 348" fill="none" xmlns="http://www.w3.org/2000/svg">
<g clip-path="url(#clip0)">
<path d="M62.4654 345.584C25.2075 299.419 24.13 275.259 30.3342 261.71C36.5384 248.128 48.7835 248.063 56.4898 230.661C66.2859 208.526 52.0489 196.087 55.4122 168.042C58.2857 143.98 73.535 112.833 97.8947 103.789C126.989 92.9828 144.981 122.628 173.063 111.952C200.493 101.537 193.472 69.4433 224.82 54.2291C247.906 42.998 280.755 46.3281 296.168 62.9462C307.597 75.2547 302.078 86.9755 313.605 104.867C328.332 127.786 349.361 119.787 357.72 135.916C369.867 159.39 332.969 182.015 340.838 216.492C346.683 242.056 370.096 243.296 382.243 272.027C393.149 297.852 386.455 325.701 378.423 346.074C273.049 345.943 167.774 345.747 62.4654 345.584Z" fill="#EFEEFE"/>
<path d="M394.358 325.832C393.738 323.253 391.191 311.075 398.57 301.542C403.011 295.828 411.403 290.539 415.224 293.086C418.979 295.534 417.477 304.839 414.669 310.716C409.379 321.718 397.297 325.081 394.358 325.832Z" stroke="#D3D5FC" stroke-width="3.1746" stroke-miterlimit="10"/>
<path d="M370.783 346.172C370.783 346.172 384.171 338.042 394.359 325.832C404.547 313.621 410.262 301.509 410.262 301.509" stroke="#4B5B98" stroke-width="3.1746" stroke-miterlimit="10"/>
<path d="M401.055 317.05C403.275 316.332 405.496 315.646 407.716 314.928" stroke="#4B5B98" stroke-width="3.1746" stroke-miterlimit="10"/>
<path d="M406.54 308.202C406.214 306.211 405.887 304.219 405.561 302.228" stroke="#4B5B98" stroke-width="3.1746" stroke-miterlimit="10"/>
<path d="M383.256 305.231C386.457 303.044 401.151 292.498 402.555 275.031C403.404 264.551 399.551 250.643 392.955 249.598C386.522 248.586 379.012 260.013 376.269 269.089C371.142 286.099 380.807 301.574 383.256 305.231Z" fill="#7AB6F6"/>
<path d="M391.65 262.494C391.65 262.494 389.07 284.434 383.258 305.231C377.446 326.028 371.307 346.107 371.307 346.107" stroke="#4B5B98" stroke-width="3.1746" stroke-miterlimit="10"/>
<path d="M387.7 286.328C386.263 282.247 384.859 278.133 383.422 274.052" stroke="#4B5B98" stroke-width="3.1746" stroke-miterlimit="10"/>
<path d="M389.951 274.085C390.408 272.812 391.486 271.832 392.531 270.951C393.641 269.971 394.751 269.024 395.894 268.045" stroke="#4B5B98" stroke-width="3.1746" stroke-miterlimit="10"/>
<path d="M363.371 345.943H385.445" stroke="#C1E6FA" stroke-width="8.9907" stroke-miterlimit="10" stroke-linecap="round"/>
<path d="M41.1113 346.53H345.019" stroke="#C1E6FA" stroke-width="8.9907" stroke-miterlimit="10" stroke-linecap="round"/>
<path d="M214.566 97.5532C202.289 99.4141 126.728 110.058 107.789 76.3317C102.956 67.7125 98.9397 51.0944 105.177 46.2951C111.969 41.0713 131.3 49.5273 132.279 59.681C132.769 64.6435 128.85 69.9326 125.095 72.0874C108.181 81.8493 68.1146 43.7812 50.3184 25.7266" stroke="#BBB4F8" stroke-width="1.6782" stroke-miterlimit="10" stroke-linecap="round" stroke-dasharray="10.44 10.44"/>
<path d="M52.0819 219.594C49.1758 221.683 35.4612 231.217 19.7874 227.038C10.4158 224.524 -0.523182 216.851 0.619697 210.811C1.72992 204.902 14.0077 201.898 22.7916 202.323C39.1837 203.106 49.6329 216.329 52.0819 219.594Z" stroke="#D3D5FC" stroke-width="3.1746" stroke-miterlimit="10"/>
<path d="M57.5362 228.376C57.7648 231.935 58.4505 248.651 46.5319 259.621C39.3808 266.183 27.0703 271.309 22.5315 267.13C18.1232 263.049 22.1723 251.034 27.2336 243.884C36.7032 230.465 53.4872 228.702 57.5362 228.376Z" stroke="#D3D5FC" stroke-width="3.1746" stroke-miterlimit="10"/>
<path d="M61.3556 213.064C57.927 211.987 42.0899 206.665 36.1143 191.614C32.5224 182.603 32.1305 169.25 37.6817 166.54C43.0695 163.896 52.833 171.96 57.731 179.241C66.8741 192.888 62.5311 209.179 61.3556 213.064Z" stroke="#D3D5FC" stroke-width="3.1746" stroke-miterlimit="10"/>
<path d="M96.0346 222.957C85.3895 222.826 73.7647 222.173 61.291 220.737C43.854 218.713 28.1802 215.513 14.6289 211.922" stroke="#D3D5FC" stroke-width="3.1746" stroke-miterlimit="10"/>
<path d="M35.4941 254.299C49.6985 241.599 62.6947 220.9 62.6947 220.9C62.6947 220.9 61.8457 203.563 46.1066 182.113" stroke="#D3D5FC" stroke-width="3.1746" stroke-miterlimit="10"/>
<path d="M212.772 0C180.021 0 153.506 26.5106 153.506 59.257L153.8 59.1917C192.429 48.7442 233.116 48.7442 271.745 59.1917L272.039 59.257C272.006 26.5106 245.491 0 212.772 0Z" fill="#569DE5"/>
<path d="M212.772 66.6685C245.504 66.6685 272.039 63.0727 272.039 58.637C272.039 54.2013 245.504 50.6055 212.772 50.6055C180.04 50.6055 153.506 54.2013 153.506 58.637C153.506 63.0727 180.04 66.6685 212.772 66.6685Z" fill="#143980"/>
<path d="M132.542 345.453L115.398 345.518L139.072 304.349L149.554 315.841L132.542 345.453Z" fill="#7AB6F6"/>
<path d="M293.491 345.453L310.601 345.519L289.344 308.169L275.76 314.47L293.491 345.453Z" fill="#7AB6F6"/>
<path d="M212.967 338.173C289.323 338.173 351.223 276.284 351.223 199.94C351.223 123.595 289.323 61.7061 212.967 61.7061C136.61 61.7061 74.7109 123.595 74.7109 199.94C74.7109 276.284 136.61 338.173 212.967 338.173Z" fill="#569DE5"/>
<path d="M212.968 306.079C271.597 306.079 319.125 258.559 319.125 199.939C319.125 141.319 271.597 93.7988 212.968 93.7988C154.339 93.7988 106.811 141.319 106.811 199.939C106.811 258.559 154.339 306.079 212.968 306.079Z" fill="#EFEEFE"/>
<path d="M212.968 210.419C218.757 210.419 223.45 205.727 223.45 199.939C223.45 194.151 218.757 189.459 212.968 189.459C207.179 189.459 202.486 194.151 202.486 199.939C202.486 205.727 207.179 210.419 212.968 210.419Z" fill="#7AB6F6"/>
<path d="M181.294 195.629C196.935 195.434 214.405 197.817 214.405 199.939C214.405 202.061 196.935 204.445 181.294 204.249C168.363 204.085 157.587 202.192 149.946 200.363C149.489 200.266 149.489 199.613 149.946 199.515C157.587 197.686 168.363 195.793 181.294 195.629Z" fill="#7AB6F6"/>
<path d="M217.279 157.399C217.474 178.424 215.091 201.898 212.968 201.898C210.813 201.898 208.462 178.424 208.658 157.399C208.821 139.997 210.715 125.534 212.544 115.249C212.642 114.662 213.295 114.662 213.393 115.249C215.221 125.501 217.115 139.997 217.279 157.399Z" fill="#7AB6F6"/>
<path d="M317.1 70.2924V84.4944C317.1 86.5187 318.732 88.1511 320.757 88.1511H330.586L334.406 93.1137L338.227 88.1511H348.055C350.08 88.1511 351.713 86.5187 351.713 84.4944V70.2924C351.713 68.2682 350.08 66.6357 348.055 66.6357H320.789C318.732 66.6357 317.1 68.2682 317.1 70.2924Z" fill="#7AB6F6"/>
<path d="M330.031 85.4407C328.562 85.4407 327.354 84.3633 327.158 82.9267C327.06 82.2085 326.897 81.4902 326.766 80.7719L326.211 78.1274C326.211 76.5276 327.517 75.2217 329.117 75.2217H339.174V84.5591L336.823 85.4407H330.031Z" fill="#EFEEFE"/>
<path d="M339.174 75.2217L336.007 69.5082C335.713 68.9532 335.027 68.692 334.439 68.9206L333.884 69.1164C333.362 69.3123 333.035 69.8021 333.035 70.3244V75.2217" fill="#EFEEFE"/>
<path d="M342.57 75.2217H339.174V84.5265H342.57V75.2217Z" fill="#EFEEFE"/>
<path d="M53.5851 25.5313L42.9727 17.8916L46.5319 31.2775L53.5851 25.5313Z" fill="#BBB4F8"/>
<path d="M55.6107 20.9947L53.5862 25.5329L43.0391 17.9258" fill="#EFEEFE"/>
<path d="M52.6714 27.5889L43.0059 17.9902L50.6142 33.3024L52.6714 27.5889Z" fill="#EFEEFE"/>
<path d="M212.968 206.24C216.449 206.24 219.27 203.419 219.27 199.939C219.27 196.459 216.449 193.638 212.968 193.638C209.488 193.638 206.666 196.459 206.666 199.939C206.666 203.419 209.488 206.24 212.968 206.24Z" fill="#D3D5FC"/>
<path d="M268.119 211.17C272.103 210.909 275.76 213.26 277.197 216.982C278.928 221.552 281.017 227.396 281.409 230.074C281.409 230.074 290.52 238.954 294.209 242.48L292.25 244.178C292.25 244.178 279.874 236.114 276.087 232.588C272.299 229.029 268.119 211.17 268.119 211.17Z" fill="#FFC5AE"/>
<path d="M231.939 341.209L231.775 341.732L232.984 343.005L234.29 342.45L234.78 341.732L234.91 341.177L231.939 341.209Z" fill="#F6A19E"/>
<path d="M275.434 341.176L275.336 341.731L275.924 342.711L277.687 342.548L278.177 342.221L278.34 341.731V341.046L275.434 341.176Z" fill="#F6A19E"/>
<path d="M258.749 248.487C259.174 248.422 259.435 247.345 259.272 246.496C259.01 245.19 257.868 244.504 257.672 244.406C257.508 244.765 257.214 245.451 257.345 246.3C257.476 247.41 258.259 248.553 258.749 248.487Z" fill="#47B27C"/>
<path d="M258.781 247.9C258.65 248.324 259.532 249.01 260.381 249.206C261.654 249.5 262.764 248.749 262.96 248.618C262.699 248.324 262.177 247.769 261.36 247.541C260.283 247.214 258.911 247.41 258.781 247.9Z" fill="#47B27C"/>
<path d="M259.368 247.377C259.629 247.737 260.707 247.443 261.36 246.888C262.372 246.039 262.438 244.7 262.438 244.472C262.046 244.504 261.295 244.57 260.609 245.125C259.727 245.745 259.074 246.986 259.368 247.377Z" fill="#47B27C"/>
<path d="M255.859 201.878L254.363 201.469C253.061 201.113 252.229 199.988 252.509 198.962L253.318 196L257.177 197.055L255.859 201.878Z" fill="#2E3192"/>
<path d="M251.303 242.97C251.303 242.97 243.956 252.406 231.482 341.177L235.205 341.144L264.593 259.458V242.938H251.303V242.97Z" fill="#4463CD"/>
<path d="M273.475 237.909C273.475 237.909 282.356 244.896 282.324 263.636C282.291 272.027 278.34 341.013 278.34 341.013L275.434 341.176C270.274 314.927 266.519 289.102 262.242 262.396C261.621 262.298 258.486 262.069 257.964 261.449C256.788 260.045 257.931 257.596 257.899 256.551C257.801 252.242 257.768 242.447 258.062 238.823C261.491 239.085 270.274 238.236 273.475 237.909Z" fill="#4463CD"/>
<path d="M278.341 341.045C278.341 341.045 282.324 272.092 282.324 263.668C282.357 244.928 273.475 237.941 273.475 237.941C272.724 238.039 271.973 238.105 271.189 238.203L269.1 239.541C269.1 239.541 275.369 276.303 275.239 298.276C275.141 310.486 275.173 327.431 275.206 340.066C275.271 340.458 275.369 340.849 275.434 341.241L278.341 341.045Z" fill="#2E3192"/>
<path d="M274.978 243.296C276.186 243.002 277.035 241.892 276.97 240.652C276.709 234.318 275.892 227.135 274.096 219.398C273.313 215.97 272.398 212.77 271.419 209.766C267.598 208.917 263.778 208.069 259.957 207.22L251.108 210.68C250.455 215.741 249.998 221.454 249.965 227.756C249.933 233.436 250.227 238.693 250.716 243.394C250.782 243.884 251.141 244.243 251.598 244.341C254.635 244.798 258.292 245.125 262.374 245.027C267.272 244.863 271.517 244.145 274.978 243.296Z" fill="#F9E0D2"/>
<path d="M276.022 243.035C276.642 242.872 277.067 242.317 277.034 241.664C276.805 235.102 276.022 227.56 274.128 219.365C273.344 215.937 272.724 212.672 271.777 209.701C269.328 209.146 266.585 208.656 264.136 208.134C263.319 208.265 261.099 206.763 260.446 207.71C259.597 208.95 261.164 212.444 261.328 212.966C262.144 216.002 264.364 227.952 267.401 244.635C270.634 244.276 273.54 243.688 276.022 243.035Z" fill="#FFC5AE"/>
<path d="M256.234 201.637L257.051 208.362L260.088 209.766L262.504 207.774L261.557 200.592L256.234 201.637Z" fill="#FB9C98"/>
<path d="M261.557 200.592L256.234 201.637L256.3 202.126C256.855 204.444 259.173 206.566 261.361 206.109C261.688 206.044 261.981 205.913 262.243 205.75L261.557 200.592Z" fill="#F26D6D"/>
<path d="M261.759 192.022C262.02 192.162 264.021 193.469 264.717 195.99C265.674 199.351 264.152 204.159 260.933 204.906C257.888 205.606 254.67 202.292 254.104 198.837C253.582 195.803 255.061 192.022 257.627 191.182C259.454 190.575 261.194 191.649 261.759 192.022Z" fill="#FB9C98"/>
<path d="M264.885 189.043C265.647 190.528 262.378 193.499 262.064 193.814C259.288 196.334 254.765 197.91 253.421 196.425C252.436 195.344 253.332 192.734 254.541 191.203C257.407 187.512 263.99 187.332 264.885 189.043Z" fill="#2E3192"/>
<path d="M253.031 198.766C252.859 197.942 253.42 197.162 254.241 197.031C255.062 196.858 255.839 197.422 255.969 198.246C256.141 199.069 255.58 199.85 254.759 199.98C253.982 200.11 253.204 199.59 253.031 198.766Z" fill="#FB9C98"/>
<path d="M251.891 241.827C252.61 242.382 253.263 242.839 253.752 243.198C253.85 243.264 253.916 243.329 254.014 243.362C254.732 243.851 255.124 244.145 255.124 244.145L255.287 243.166L255.646 241.174C255.646 241.174 252.087 235.754 248.658 231.314C248.593 231.216 248.495 231.118 248.43 231.02C248.103 230.629 247.809 230.204 247.483 229.845C246.895 229.127 246.307 228.441 245.752 227.854C244.381 228.082 242.977 228.474 241.54 228.866C240.691 229.094 239.907 229.355 239.156 229.617C241.866 233.665 246.699 237.844 250.324 240.684C250.912 241.076 251.434 241.468 251.891 241.827Z" fill="#F9E0D2"/>
<path d="M245.881 220.246C244.771 218.94 243.628 217.634 242.681 216.23C240.395 218.091 238.469 220.181 237.489 222.336C236.542 224.425 237.424 227.004 239.22 229.682C241.505 229.714 244.02 229.127 246.142 228.278C245.391 227.429 244.705 226.743 244.118 226.286C244.118 226.286 245.979 224.752 248.199 222.728C247.285 221.813 246.501 220.964 245.881 220.246Z" fill="#F9E0D2"/>
<path d="M275.336 341.731C275.336 341.731 273.899 343.135 275.336 344.572H281.573V341.731H278.34C278.34 341.731 276.871 342.613 275.336 341.731Z" fill="#2E3192"/>
<path d="M279.156 344.572H284.021V344.18C284.021 342.842 282.944 341.731 281.572 341.731C280.233 341.731 279.123 342.809 279.123 344.18V344.572H279.156Z" fill="#F9E0D2"/>
<path d="M284.251 344.572H275.107V345.029H284.251V344.572Z" fill="#F9E0D2"/>
<path d="M234.78 341.731C234.78 341.731 236.217 343.135 234.78 344.572H227.4L227.662 341.731H231.776C231.776 341.731 233.245 342.613 234.78 341.731Z" fill="#2E3192"/>
<path d="M224.958 345.029H235.016V344.572H224.958V345.029Z" fill="#F9E0D2"/>
<path d="M227.662 341.731C226.323 341.731 225.213 342.809 225.213 344.18V344.572H227.662V341.731Z" fill="#F9E0D2"/>
<path d="M271.744 209.701C274.748 210.321 277.067 212.672 277.654 215.676L278.601 220.475L272.463 220.671L271.744 209.701Z" fill="#FFC5AE"/>
<path d="M248.266 222.728C251.172 220.083 254.633 216.557 255.352 214.37C256.593 210.517 253.85 209.701 253.85 209.701C253.85 209.701 247.939 211.072 242.715 216.231C243.662 217.635 244.805 218.973 245.915 220.247C246.503 220.965 247.286 221.814 248.266 222.728Z" fill="#F9E0D2"/>
<path d="M291.538 257.607C299.278 249.868 299.278 237.32 291.538 229.581C283.798 221.842 271.248 221.842 263.507 229.581C255.767 237.32 255.767 249.868 263.507 257.607C271.248 265.346 283.798 265.346 291.538 257.607Z" fill="#FDC854"/>
<path d="M283.951 258.102C291.968 254.56 295.595 245.191 292.052 237.175C288.509 229.159 279.138 225.533 271.121 229.075C263.105 232.617 259.477 241.986 263.02 250.002C266.563 258.018 275.934 261.644 283.951 258.102Z" fill="#F89F4F"/>
<path d="M275.827 255.05C275.043 255.05 274.227 254.886 273.378 254.56C271.517 253.842 270.276 252.862 269.688 251.556C269.166 250.446 269.1 249.14 269.492 247.54L271.745 248.128C271.255 249.989 271.517 251.328 274.227 252.372C277.329 253.548 278.603 251.23 278.994 250.185C279.582 248.651 279.876 247.051 277.002 244.798L276.97 244.765L276.48 244.374C274.749 243.002 273.737 241.631 273.378 240.162C273.019 238.66 273.378 237.322 273.77 236.342C274.358 234.808 275.402 233.6 276.643 232.914C278.08 232.163 279.778 232.13 281.541 232.816C283.403 233.534 284.578 234.546 285.133 235.918C285.688 237.256 285.525 238.66 285.329 239.77L283.043 239.346C283.435 237.191 283.174 235.918 280.725 234.971C277.623 233.795 276.349 236.114 275.958 237.158C275.37 238.693 275.076 240.293 277.949 242.545L277.982 242.578L278.472 242.97C280.203 244.341 281.215 245.712 281.574 247.181C281.966 248.683 281.574 250.022 281.182 251.001C280.594 252.536 279.582 253.744 278.309 254.429C277.525 254.854 276.709 255.05 275.827 255.05Z" fill="#FDC854"/>
<path d="M272.857 253.093L271.969 255.41L274.134 256.24L275.022 253.922L272.857 253.093Z" fill="#FDC854"/>
<path d="M281.4 231.247L280.512 233.564L282.677 234.394L283.565 232.077L281.4 231.247Z" fill="#FDC854"/>
<path d="M256.822 242.187C259.173 242.219 259.728 242.48 259.761 242.742C259.826 243.068 258.945 243.754 258.03 243.525C257.377 243.362 256.888 242.839 256.822 242.187Z" fill="#FB9C98"/>
<path d="M253.785 242.97L255.157 244.145C255.287 244.504 255.581 245.124 256.169 245.679C256.43 245.941 257.606 247.083 258.879 246.757C259.761 246.528 260.544 245.647 260.381 245.19C260.316 245.026 260.153 244.928 260.022 244.896L255.679 241.174L253.785 242.97Z" fill="#FB9C98"/>
<path d="M273.639 217.341L275.271 225.046" stroke="#E29E86" stroke-width="1.4249" stroke-miterlimit="10"/>
<path d="M260.185 209.766L261.393 210.843L260.904 212.639L259.467 211.431L260.185 209.766Z" fill="#F95F6A"/>
<path d="M260.904 212.64C260.904 212.64 266.749 220.149 262.242 229.421L259.238 223.773L260.904 212.64Z" fill="#F95F6A"/>
<path d="M134.402 283.486L141.194 340.817L144.035 340.621L146.452 282.67L134.402 283.486Z" fill="#FB9C98"/>
<path d="M126.109 341.308H122.354V342.222H126.109V341.308Z" fill="#F6A19E"/>
<path d="M126.108 341.308C126.108 341.308 127.741 342.875 126.108 344.507H116.378C116.345 344.311 116.116 343.365 116.704 342.45C117.161 341.699 117.847 341.406 118.076 341.308C119.61 341.308 121.178 341.308 122.712 341.308C122.712 341.308 124.41 342.287 126.108 341.308Z" fill="#2E3192"/>
<path d="M116.09 345.035H126.408V344.219H116.09V345.035Z" fill="#F9E0D2"/>
<path d="M120.589 341.405C120.426 341.666 120.263 341.928 120.1 342.156" stroke="#E1EEF7" stroke-width="0.9" stroke-miterlimit="10"/>
<path d="M121.503 341.471C121.373 341.732 121.242 342.026 121.111 342.287" stroke="#E1EEF7" stroke-width="0.9" stroke-miterlimit="10"/>
<path d="M117.096 284.368L123.202 341.405H125.749L128.688 283.911L117.096 284.368Z" fill="#FB9C98"/>
<path d="M141.26 339.609C141.26 339.609 141.325 340.719 141.031 341.503C140.737 342.286 143.088 342.417 143.121 342.384C143.154 342.352 144.231 341.503 144.231 341.503C144.231 341.503 143.905 340.523 143.937 339.479" fill="#F6A19E"/>
<path d="M144.851 343.201C144.786 342.385 144.459 341.797 144.263 341.504C143.97 341.406 143.545 341.275 143.055 341.242C142.174 341.177 141.455 341.373 141.031 341.504C140.835 341.732 140.41 342.353 140.345 343.267C140.312 343.822 140.443 344.279 140.541 344.54C141.945 344.54 143.316 344.54 144.721 344.54C144.819 344.246 144.884 343.756 144.851 343.201Z" fill="#2E3192"/>
<path d="M142.729 342.417H142.533C141.357 342.417 140.41 343.364 140.41 344.539H144.851C144.851 343.364 143.904 342.417 142.729 342.417Z" fill="#2E3192"/>
<path d="M144.85 344.441H140.344V345.029H144.85V344.441Z" fill="#F9E0D2"/>
<path d="M141.977 341.765C141.977 341.765 142.63 341.536 143.217 341.765" stroke="#E1EEF7" stroke-width="0.6017" stroke-miterlimit="10"/>
<path d="M141.977 342.188C141.977 342.188 142.63 341.96 143.217 342.188" stroke="#E1EEF7" stroke-width="0.6017" stroke-miterlimit="10"/>
<path d="M134.174 242.122C134.174 242.089 134.174 242.056 134.174 242.024C130.908 242.285 122.549 241.469 119.479 241.175C119.479 241.175 111.022 247.835 111.055 265.694C111.055 268.11 111.414 275.717 111.871 285.185C117.39 286.719 123.202 287.013 128.459 287.275C135.806 287.634 142.206 286.752 147.366 285.577C147.888 275.945 148.28 268.306 148.345 266.249C148.835 250.806 144.427 242.35 144.427 242.35L134.174 242.122Z" fill="#4463CD"/>
<path d="M148.05 257.172C148.05 257.139 148.05 257.107 148.05 257.041C147.985 256.519 147.952 256.029 147.887 255.54C147.887 255.442 147.854 255.376 147.854 255.278C147.822 254.985 147.789 254.723 147.756 254.43C147.756 254.364 147.724 254.299 147.724 254.266C147.691 254.005 147.658 253.744 147.593 253.483C146.45 246.202 144.426 242.317 144.426 242.317H144.067L136.295 242.121C138.483 255.866 140.311 270.721 141.487 286.621C143.577 286.327 145.569 285.935 147.365 285.544C147.397 284.793 147.43 284.074 147.495 283.356C147.495 283.324 147.495 283.291 147.495 283.258C147.495 283.03 147.528 282.834 147.528 282.605C147.593 281.658 147.626 280.777 147.658 279.895C147.658 279.895 147.658 279.895 147.658 279.863C147.658 279.667 147.691 279.471 147.691 279.275C147.691 279.242 147.691 279.177 147.691 279.145C147.691 278.949 147.724 278.785 147.724 278.589C147.724 278.557 147.724 278.524 147.724 278.492C147.756 277.675 147.822 276.892 147.854 276.141C147.854 276.108 147.854 276.076 147.854 276.043C147.854 275.88 147.854 275.749 147.887 275.586C147.887 275.488 147.887 275.423 147.887 275.325C147.887 275.194 147.887 275.063 147.92 274.933C147.92 274.868 147.92 274.77 147.92 274.704C147.92 274.476 147.952 274.247 147.952 274.051C147.952 273.953 147.952 273.888 147.952 273.79C147.952 273.692 147.952 273.594 147.952 273.464C147.952 273.366 147.952 273.268 147.952 273.137C147.952 273.039 147.952 272.974 147.952 272.876C147.952 272.778 147.952 272.647 147.985 272.55C147.985 272.452 147.985 272.386 147.985 272.288C147.985 272.158 147.985 272.027 148.018 271.929C148.018 271.864 148.018 271.799 148.018 271.766C148.018 271.603 148.05 271.407 148.05 271.244C148.05 271.211 148.05 271.146 148.05 271.113C148.05 270.982 148.05 270.852 148.083 270.721C148.083 270.656 148.083 270.591 148.083 270.525C148.083 270.427 148.083 270.329 148.083 270.231C148.083 270.166 148.083 270.101 148.083 270.036C148.083 269.938 148.083 269.84 148.083 269.742C148.083 269.709 148.083 269.644 148.083 269.611C148.083 269.481 148.083 269.35 148.116 269.219C148.116 269.187 148.116 269.154 148.116 269.121C148.116 268.991 148.116 268.893 148.148 268.762C148.148 268.73 148.148 268.697 148.148 268.664C148.148 268.566 148.148 268.468 148.148 268.371C148.148 268.338 148.148 268.273 148.148 268.24C148.148 268.142 148.148 268.077 148.148 267.979C148.148 267.946 148.148 267.913 148.148 267.881C148.148 267.783 148.148 267.685 148.148 267.587C148.148 267.554 148.148 267.554 148.148 267.522C148.148 267.424 148.148 267.293 148.148 267.195C148.148 267.163 148.148 267.163 148.148 267.13C148.148 267.065 148.148 266.967 148.148 266.901C148.148 266.869 148.148 266.836 148.148 266.803C148.148 266.738 148.148 266.673 148.148 266.64C148.148 266.607 148.148 266.575 148.148 266.575C148.148 266.51 148.148 266.477 148.148 266.412C148.148 266.379 148.148 266.379 148.148 266.346C148.148 266.281 148.148 266.216 148.148 266.15C148.442 262.886 148.311 259.849 148.05 257.172Z" fill="#2E3192"/>
<path d="M123.136 205.588C122.711 204.771 121.405 202.029 122.156 198.731C123.103 194.585 126.924 191.32 130.254 191.353C134.695 191.418 139.789 197.295 138.875 205.588C133.65 205.588 128.393 205.588 123.136 205.588Z" fill="#653087"/>
<path d="M139.691 212.313C139.691 212.313 140.279 226.385 141.716 233.404C141.716 233.404 130.777 236.995 152.949 237.453V234.808C147.267 233.078 154.026 232.131 148.345 230.4C146.777 225.209 145.667 215.709 142.304 210.518L139.691 212.313Z" fill="#FFC5AE"/>
<path d="M144.427 242.35C144.917 235.885 144.95 228.278 143.905 219.92C143.48 216.59 142.925 213.488 142.305 210.55C138.778 209.375 135.219 208.199 131.692 207.057L122.974 209.473C121.864 214.207 120.884 219.594 120.264 225.536C119.643 231.249 119.447 236.473 119.48 241.174C122.451 241.99 126.141 242.741 130.354 243.068C135.905 243.46 140.738 243.003 144.427 242.35Z" fill="#F9E0D2"/>
<path d="M144.426 242.35C144.916 235.886 144.949 228.279 143.904 219.921C143.479 216.591 142.924 213.489 142.304 210.551C140.051 209.8 137.765 209.049 135.512 208.298C134.173 209.31 133.683 210.714 134.793 212.64C137.993 218.256 136.296 234.384 135.055 243.199C138.647 243.166 141.814 242.807 144.426 242.35Z" fill="#FFC5AE"/>
<path d="M128.851 206.044L128.785 201.114L133.651 200.886L133.716 206.371C133.814 207.35 135.022 208.166 136.002 208.46L137.733 209.015C137.537 210.55 136.002 213.978 134.5 214.206C131.692 214.631 128.198 209.864 126.598 208.395C127.675 208.166 128.785 207.122 128.851 206.044Z" fill="#FB9C98"/>
<path d="M133.716 203.106L133.684 200.919L128.818 201.147L128.851 204.576C129.243 204.869 129.7 205.033 130.19 205.098C131.561 205.229 132.867 204.347 133.716 203.106Z" fill="#F26D6D"/>
<path d="M122.941 209.44C122.941 209.44 117.749 222.532 116.182 229.519C116.182 229.519 116.933 234.841 137.015 244.309L138.19 242.317C133.717 238.432 127.937 233.372 123.463 229.487C125.161 225.503 126.141 221.292 127.121 216.754C127.545 214.729 126.827 212.64 125.259 211.334L122.941 209.44Z" fill="#F9E0D2"/>
<path d="M119.35 233.633C119.35 233.633 121.57 236.277 137.015 244.341L138.191 242.35C133.717 238.465 127.938 233.404 123.464 229.519C125.162 225.536 126.142 221.324 127.121 216.786" stroke="#FFC5AE" stroke-width="1.4414" stroke-miterlimit="10"/>
<path d="M137.177 243.819C137.373 244.048 138.32 242.807 139.594 242.97C140.475 243.068 140.835 243.721 141.586 243.493C141.912 243.395 142.239 243.166 142.239 242.905C142.206 242.481 141.096 242.252 140.769 242.154C139.986 241.991 139.039 241.762 138.19 242.285C137.439 242.807 137.014 243.656 137.177 243.819Z" fill="#F6A19E"/>
<path d="M151.904 243.427H114.711L115.005 219.137H151.61L151.904 243.427Z" fill="#4463CD"/>
<path d="M149.749 242.024H116.867L117.128 220.541H149.488L149.749 242.024Z" fill="#EFEEFE"/>
<path d="M153.244 243.427H113.309V245.353H153.244V243.427Z" fill="#2E3192"/>
<path d="M111.805 240.978C111.707 241.892 112.328 242.709 113.242 242.839C113.732 242.904 114.319 242.937 114.94 242.774C115.854 242.578 116.54 242.447 116.899 241.86C117.128 241.501 117.226 240.946 116.997 240.521C116.866 240.293 116.573 239.966 116.311 239.77C115.952 239.509 114.613 239.085 113.209 239.738C112.621 239.999 111.87 240.325 111.805 240.978Z" fill="#FB9C98"/>
<path d="M112.688 239.999C114.092 238.105 114.647 237.779 114.843 237.909C115.137 238.072 115.202 239.182 114.483 239.803C114.026 240.227 113.275 240.325 112.688 239.999Z" fill="#FB9C98"/>
<path d="M128.753 195.859C128.589 195.989 127.251 196.969 126.891 198.699C126.434 200.984 127.871 204.053 130.157 204.315C132.377 204.576 134.434 202.127 134.598 199.776C134.761 197.72 133.455 195.304 131.593 194.977C130.287 194.749 129.112 195.597 128.753 195.859Z" fill="#FB9C98"/>
<path d="M126.467 193.997C126.043 195.074 128.492 196.903 128.753 197.066C130.843 198.6 134.076 199.351 134.892 198.241C135.48 197.425 134.696 195.727 133.782 194.748C131.529 192.397 126.957 192.724 126.467 193.997Z" fill="#653087"/>
<path d="M134.893 200.391C135.483 200.318 135.902 199.779 135.829 199.189C135.755 198.598 135.216 198.18 134.626 198.253C134.035 198.327 133.616 198.865 133.69 199.456C133.764 200.046 134.302 200.465 134.893 200.391Z" fill="#FB9C98"/>
<path d="M153.864 236.636C153.668 237.517 152.819 238.105 151.937 237.942C151.447 237.844 150.892 237.681 150.337 237.354C149.521 236.897 148.9 236.538 148.737 235.885C148.639 235.461 148.704 234.906 149.031 234.579C149.227 234.383 149.586 234.187 149.945 234.057C150.37 233.893 151.774 233.926 152.884 234.971C153.407 235.428 154.027 235.983 153.864 236.636Z" fill="#FB9C98"/>
<path d="M148.312 221.618C148.312 221.422 148.149 221.259 147.953 221.259C147.757 221.259 147.594 221.422 147.594 221.618C147.594 221.814 147.757 221.977 147.953 221.977C148.181 221.977 148.312 221.814 148.312 221.618Z" fill="#EFEEFE"/>
<path d="M146.843 221.618C146.843 221.422 146.68 221.259 146.484 221.259C146.288 221.259 146.125 221.422 146.125 221.618C146.125 221.814 146.288 221.977 146.484 221.977C146.68 221.977 146.843 221.814 146.843 221.618Z" fill="#EFEEFE"/>
<path d="M145.375 221.618C145.375 221.422 145.211 221.259 145.015 221.259C144.82 221.259 144.656 221.422 144.656 221.618C144.656 221.814 144.82 221.977 145.015 221.977C145.211 221.977 145.375 221.814 145.375 221.618Z" fill="#EFEEFE"/>
<path d="M125 232.551L130.021 238L142 225" stroke="#45B4AD" stroke-width="3" stroke-miterlimit="10" stroke-linecap="round"/>
</g>
<defs>
<clipPath id="clip0">
<rect width="418" height="348" fill="white"/>
</clipPath>
</defs>
</svg>
